<?xml version="1.0" encoding="UTF-8" standalone="no"?>
<!-- Generator: Adobe Illustrator 16.0.2, SVG Export Plug-In . SVG Version: 6.00 Build 0)  -->

<svg
   xmlns:dc="http://purl.org/dc/elements/1.1/"
   xmlns:cc="http://creativecommons.org/ns#"
   xmlns:rdf="http://www.w3.org/1999/02/22-rdf-syntax-ns#"
   xmlns:svg="http://www.w3.org/2000/svg"
   xmlns="http://www.w3.org/2000/svg"
   xmlns:sodipodi="http://sodipodi.sourceforge.net/DTD/sodipodi-0.dtd"
   xmlns:inkscape="http://www.inkscape.org/namespaces/inkscape"
   version="1.1"
   id="Ebene_1"
   x="0px"
   y="0px"
   width="554px"
   height="552px"
   viewBox="0 0 554 552"
   style="enable-background:new 0 0 554 552;"
   xml:space="preserve"
   sodipodi:docname="France_road_sign_B13a.svg"
   inkscape:version="0.92.3 (2405546, 2018-03-11)"><metadata
   id="metadata5964"><rdf:RDF><cc:Work
       rdf:about=""><dc:format>image/svg+xml</dc:format><dc:type
         rdf:resource="http://purl.org/dc/dcmitype/StillImage" /></cc:Work></rdf:RDF></metadata><defs
   id="defs5962" /><sodipodi:namedview
   pagecolor="#ffffff"
   bordercolor="#666666"
   borderopacity="1"
   objecttolerance="10"
   gridtolerance="10"
   guidetolerance="10"
   inkscape:pageopacity="0"
   inkscape:pageshadow="2"
   inkscape:window-width="1233"
   inkscape:window-height="739"
   id="namedview5960"
   showgrid="false"
   inkscape:zoom="0.42753623"
   inkscape:cx="-252.77966"
   inkscape:cy="276"
   inkscape:window-x="49"
   inkscape:window-y="24"
   inkscape:window-maximized="0"
   inkscape:current-layer="Ebene_1" />

<ellipse
   style="fill:#FF0000;"
   cx="276.991"
   cy="275.32"
   rx="262.848"
   ry="261.258"
   id="ellipse5941" />
<ellipse
   style="fill:#FFFFFF;"
   cx="276.991"
   cy="275.32"
   rx="185.666"
   ry="184.543"
   id="ellipse5943" />
<path
   d="M399.323,330.414v-42.17H361.99v44.334h-59.542c-3.587-9.723-13.032-16.667-24.124-16.667s-20.538,6.944-24.125,16.667  H193.99v-44.334h-37.333v42.17c-4.913,0.927-8.667,5.863-8.667,11.83s3.754,10.902,8.667,11.83v40.837h37.333v-43.667h60.746  c3.931,9.018,13.011,15.333,23.587,15.333c10.575,0,19.655-6.316,23.584-15.333h60.081v43.667h37.333v-40.837  c4.913-0.928,8.667-5.863,8.667-11.83S404.237,331.341,399.323,330.414z"
   id="path5945" />


</svg>