<?xml version="1.0" encoding="UTF-8" standalone="no"?>
<!-- Generator: Adobe Illustrator 13.0.0, SVG Export Plug-In  -->

<svg
   xmlns:dc="http://purl.org/dc/elements/1.1/"
   xmlns:cc="http://creativecommons.org/ns#"
   xmlns:rdf="http://www.w3.org/1999/02/22-rdf-syntax-ns#"
   xmlns:svg="http://www.w3.org/2000/svg"
   xmlns="http://www.w3.org/2000/svg"
   xmlns:sodipodi="http://sodipodi.sourceforge.net/DTD/sodipodi-0.dtd"
   xmlns:inkscape="http://www.inkscape.org/namespaces/inkscape"
   version="1.1"
   x="0px"
   y="0px"
   width="576px"
   height="576px"
   viewBox="-0.031 -0.031 576 576"
   enable-background="new -0.031 -0.031 576 576"
   xml:space="preserve"
   id="svg891"
   sodipodi:docname="France_road_sign_B8.svg"
   inkscape:version="0.92.3 (2405546, 2018-03-11)"><metadata
   id="metadata895"><rdf:RDF><cc:Work
       rdf:about=""><dc:format>image/svg+xml</dc:format><dc:type
         rdf:resource="http://purl.org/dc/dcmitype/StillImage" /></cc:Work></rdf:RDF></metadata><sodipodi:namedview
   pagecolor="#ffffff"
   bordercolor="#666666"
   borderopacity="1"
   objecttolerance="10"
   gridtolerance="10"
   guidetolerance="10"
   inkscape:pageopacity="0"
   inkscape:pageshadow="2"
   inkscape:window-width="836"
   inkscape:window-height="480"
   id="namedview893"
   showgrid="false"
   inkscape:zoom="0.40972222"
   inkscape:cx="288"
   inkscape:cy="288"
   inkscape:window-x="49"
   inkscape:window-y="24"
   inkscape:window-maximized="0"
   inkscape:current-layer="svg891" />
<defs
   id="defs875">
</defs>

<circle
   fill="#FF0000"
   stroke="#FF0000"
   stroke-width="0.1764"
   stroke-linecap="round"
   stroke-linejoin="round"
   cx="287.969"
   cy="287.969"
   r="274.775"
   id="circle879" />
<circle
   fill="#FFFFFF"
   stroke="#FF0000"
   stroke-width="0.1764"
   stroke-linecap="round"
   stroke-linejoin="round"
   cx="287.969"
   cy="287.969"
   r="192.438"
   id="circle881" />
<circle
   stroke="#000000"
   stroke-width="0.1764"
   stroke-linecap="round"
   stroke-linejoin="round"
   cx="368.662"
   cy="336.973"
   r="26.596"
   id="circle883" />
<circle
   stroke="#000000"
   stroke-width="0.1764"
   stroke-linecap="round"
   stroke-linejoin="round"
   cx="205.775"
   cy="336.973"
   r="26.621"
   id="circle885" />
<path
   stroke="#000000"
   stroke-width="0.1764"
   stroke-linecap="round"
   stroke-linejoin="round"
   d="M338.824,337.953l-103.081-1.275  l-1.028-6.386l-1.195-4.734l-2.39-4.235l-3.244-4.485l-5.974-5.232l-6.146-2.989l-6.487-1.246l-6.316-0.249l-7.852,1.744  l-8.023,4.734l-5.121,5.232l-3.756,6.478l-2.219,8.223l-0.517,5.619l-32.392-1.183l1.84-8.063h5.523l3.682-41.66h4.603l4.603-33.597  l4.603-4.031l34.059-1.345v-28.206c0-0.359,0.144-0.704,0.399-0.958c0.255-0.254,0.601-0.395,0.96-0.393l213.632,1.328  c0.738,0.004,1.336,0.601,1.342,1.339l0.91,114.241h-20.657l-0.487-3.898l-1.137-4.979l-2.273-4.741l-2.273-4.03l-3.41-4.029  l-5.359-3.794l-5.359-2.37l-5.847-1.186h-7.633l-5.521,0.949l-6.172,2.606l-5.685,4.741l-3.085,3.793l-3.735,5.927l-1.624,7.112  L338.824,337.953z"
   id="path887" />
<polygon
   fill="#FFFFFF"
   stroke="#000000"
   stroke-width="0.1764"
   stroke-linecap="round"
   stroke-linejoin="round"
   points="  169.78,255.993 201.077,255.993 199.236,289.589 164.256,288.245 "
   id="polygon889" />
</svg>